<svg width="367" height="177" viewBox="0 0 367 177" fill="none" xmlns="http://www.w3.org/2000/svg">
<path d="M193.085 0C196.048 0 199.104 0 202.068 0C201.882 20.448 202.068 40.9885 201.975 61.4365C201.79 75.2227 189.103 87.0659 175.397 86.6032C161.969 86.6958 149.93 74.9451 149.467 61.529C149.374 51.999 149.467 42.4689 149.374 32.9388C152.43 32.9388 155.394 32.9388 158.45 32.9388C158.543 42.0063 158.45 51.0737 158.45 60.1411C158.357 66.3403 161.506 72.1694 166.877 75.3152C173.637 79.3863 183.176 78.091 188.454 72.0769C191.788 68.5609 193.085 63.6571 192.992 58.8458C193.085 39.2305 193.177 19.6153 193.085 0Z" fill="white"/>
<path d="M25.5594 43.3941C27.9672 37.1024 33.9866 32.9388 40.6543 32.9388C52.2301 32.8463 63.806 32.9388 75.4744 32.9388C75.4744 35.622 75.567 38.3053 75.567 40.896C64.3616 40.9885 53.1562 40.896 41.9508 40.896C38.0613 40.5259 34.4497 42.9315 33.3384 46.6325C32.4123 50.3335 35.5609 54.2195 39.3578 54.4046C48.3406 54.8672 57.3235 54.0345 66.3063 54.7747C73.9927 55.6074 79.9195 61.8991 80.4752 69.5787C81.3086 78.276 73.6223 86.5107 64.9172 86.4182C43.2473 86.4182 21.5773 86.5107 0 86.4182C0 83.6424 0 80.8667 0 78.1835C22.133 77.9059 44.266 78.4611 66.3989 77.9059C73.2518 76.1479 73.8075 65.5076 66.862 63.472C57.2309 62.4542 47.5072 63.7496 37.8761 62.8244C29.0785 61.7141 22.3182 51.9989 25.5594 43.3941Z" fill="white"/>
<path d="M108.257 33.679C121.5 30.2556 136.224 39.0455 139.836 52.184C143.262 62.5468 138.91 74.3899 130.575 81.1443C135.113 89.7491 139.095 98.5389 143.54 107.236C142.151 110.105 140.762 113.065 139.373 116.026C125.852 116.026 112.332 115.934 98.8112 116.026C89.3654 116.026 81.216 124.909 81.7716 134.254C81.8642 143.136 89.7358 151.186 98.7186 151.278C108.998 151.371 119.277 151.371 129.557 151.278C126.964 146.929 124.926 142.211 122.241 137.955C113.814 138.14 105.294 137.955 96.8665 138.047C96.8665 135.271 96.8665 132.496 96.8665 129.72C107.331 129.812 117.796 129.627 128.26 129.812C131.872 137.029 135.576 144.154 139.373 151.371H149.004C149.004 154.331 148.911 157.292 149.004 160.253L143.633 160.068C146.781 165.619 149.467 171.356 152.523 177H142.522C139.651 171.449 136.687 165.804 133.909 160.16C121.685 159.975 109.368 160.346 97.1443 159.975C83.9942 158.958 73.2518 147.3 72.8814 134.254C72.6036 120.837 83.6237 108.162 97.2369 107.421C109.368 106.866 121.592 107.421 133.724 107.144C130.02 99.9268 126.408 92.6173 122.982 85.3079C117.333 86.9733 111.128 87.3434 105.479 85.2153C94.6439 81.6069 86.7724 70.4114 87.4206 58.9383C87.5132 47.0026 96.5887 36.0847 108.257 33.679ZM96.2183 61.6215C97.0517 72.3544 108.628 80.3115 118.907 77.2582C116.036 71.3366 113.165 65.415 110.109 59.586L119.926 59.6785C122.241 64.1197 124.093 68.7459 126.871 72.9096C130.02 68.931 132.52 64.1197 131.964 58.8458C131.687 49.4082 122.889 41.266 113.35 42.0062C103.349 41.8212 95.0144 51.7214 96.2183 61.6215Z" fill="white"/>
<path d="M213.829 32.9388C216.699 32.9388 219.478 32.9388 222.348 32.8463C223.367 50.7036 222.441 68.5609 222.811 86.4182C219.848 86.5107 216.792 86.6032 213.736 86.5107C213.921 68.746 213.829 50.7961 213.829 32.9388Z" fill="white"/>
<path d="M235.499 32.9389C249.204 33.0314 263.003 32.7538 276.709 33.0314C289.951 33.8641 301.342 45.6148 301.435 58.8458C302.175 72.8171 290.322 85.9556 276.338 86.4182C262.725 86.6033 249.112 86.4182 235.499 86.5107C235.499 68.746 235.499 50.7962 235.499 32.9389ZM244.574 41.6362C244.667 53.757 244.574 65.9702 244.574 78.091C254.761 77.9985 264.947 78.1835 275.134 77.9985C285.321 77.8134 294.304 67.6357 292.452 57.3654C291.618 48.7606 283.747 41.6362 275.134 41.6362C264.947 41.5437 254.761 41.6362 244.574 41.6362Z" fill="white"/>
<path d="M174.378 107.051C183.268 124.538 191.233 142.488 199.938 160.068C196.789 160.068 193.548 159.975 190.399 159.975C185.028 149.058 180.027 138.047 174.656 127.129C169.285 138.047 164.284 149.058 158.913 159.975C155.857 159.975 152.801 159.975 149.652 159.975C157.524 142.211 166.692 125.001 174.378 107.051Z" fill="white"/>
<path d="M210.032 107.699C212.81 107.051 215.681 106.866 218.552 107.051C226.053 121.855 233.091 136.844 240.777 151.556C248.093 136.752 255.409 121.855 262.725 107.051C265.411 107.051 268.189 107.051 270.874 107.051C270.967 113.435 270.874 119.727 270.967 126.111C270.874 133.698 270.874 141.378 270.967 148.965C270.874 152.666 270.874 156.367 270.874 160.068H261.984C262.077 148.965 261.984 137.769 262.077 126.667C256.428 137.769 251.056 148.965 245.5 160.068H235.869C230.313 148.965 224.941 137.862 219.385 126.759C219.2 137.862 219.385 149.058 219.292 160.16C216.236 160.16 213.273 160.068 210.217 160.068C210.124 142.581 210.402 125.186 210.032 107.699Z" fill="white"/>
<path d="M283.469 107.051C301.064 107.051 318.659 107.051 336.255 107.051C336.255 110.105 336.255 113.065 336.255 116.119C321.53 116.026 306.898 116.119 292.174 116.119C292.174 127.777 292.174 139.435 292.174 151.001C306.898 151.001 321.53 151.093 336.255 151.001C336.255 154.054 336.255 157.107 336.255 160.068C318.659 160.068 301.064 160.068 283.469 160.068C283.469 142.396 283.469 124.723 283.469 107.051Z" fill="white"/>
<path d="M312.455 129.165C320.419 129.165 328.29 129.165 336.255 129.165C346.534 129.165 356.721 129.165 367 129.165C367 132.125 367 135.086 367 138.047H336.255C328.29 138.047 320.326 138.047 312.362 138.047C312.455 134.994 312.455 132.125 312.455 129.165Z" fill="white"/>
<path d="M96.2183 61.6215C94.9218 51.7214 103.349 41.9138 113.443 41.9138C122.889 41.1736 131.687 49.3157 132.057 58.7533C132.52 64.0272 130.112 68.8385 126.964 72.8171C124.185 68.6534 122.333 64.0272 120.018 59.586L110.202 59.4935C113.258 65.3225 116.129 71.2441 119 77.1657C108.628 80.3116 97.0517 72.3544 96.2183 61.6215Z" fill="#ED1B76"/>
<path d="M292.174 116.119C306.898 116.119 321.53 116.119 336.255 116.119C336.255 120.467 336.255 124.723 336.255 129.072C328.29 129.072 320.419 129.072 312.455 129.072C312.455 132.033 312.455 134.994 312.362 137.862C320.326 137.862 328.29 137.862 336.255 137.862C336.255 142.211 336.255 146.559 336.255 150.908C321.53 151.001 306.898 150.908 292.174 150.908C292.266 139.342 292.266 127.777 292.174 116.119Z" fill="#ED1B76"/>
<path d="M158.913 160.068C164.284 149.15 169.285 138.14 174.656 127.222C179.935 138.14 185.028 149.15 190.399 160.068C179.935 160.068 169.377 160.068 158.913 160.068Z" fill="#ED1B76"/>
</svg>
